<?xml version="1.0" encoding="UTF-8"?>
<svg version="1.1" viewBox="0 0 512 512" xmlns="http://www.w3.org/2000/svg" xmlns:xlink="http://www.w3.org/1999/xlink">
  <path d="M502.343,233.196l-223.549,-223.535c-12.8652,-12.8758 -33.7451,-12.8758 -46.626,1.24345e-14l-46.4177,46.4226l58.8817,58.8851c13.6876,-4.62221 29.3779,-1.52241 40.2842,9.38673c10.9641,10.9748 14.0415,26.7994 9.30463,40.5336l56.7503,56.7503c13.732,-4.73131 29.5729,-1.67296 40.5364,9.31027c15.3286,15.3223 15.3286,40.1522 0,55.4802c-15.3308,15.3336 -40.1606,15.3336 -55.497,0c-11.5259,-11.5343 -14.3763,-28.4667 -8.53894,-42.6678l-52.9269,-52.9292l-0.0056152,139.28c3.7392,1.84882 7.2637,4.31781 10.3771,7.41992c15.3252,15.3201 15.3252,40.1471 0,55.4919c-15.328,15.3224 -40.1691,15.3224 -55.4807,0c-15.3252,-15.3448 -15.3252,-40.1718 0,-55.4919c3.78864,-3.78244 8.16875,-6.64355 12.8461,-8.56088v-140.573c-4.67732,-1.91171 -9.05241,-4.75317 -12.8461,-8.56087c-11.6085,-11.6001 -14.4033,-28.6369 -8.45131,-42.8925l-58.0452,-58.0564l-153.28,153.273c-12.8787,12.8865 -12.8787,33.7664 8.88178e-15,46.6423l223.549,223.535c12.8702,12.8759 33.7451,12.8759 46.6316,0l222.504,-222.498c12.8758,-12.8815 12.8758,-33.7693 7.5e-06,-46.6452Z"
        fill="#569cd6"></path>
</svg>
